<?xml version="1.0" encoding="UTF-8" standalone="no"?>
<!-- Created with Inkscape (http://www.inkscape.org/) -->

<svg
   xmlns:dc="http://purl.org/dc/elements/1.1/"
   xmlns:cc="http://creativecommons.org/ns#"
   xmlns:rdf="http://www.w3.org/1999/02/22-rdf-syntax-ns#"
   xmlns:svg="http://www.w3.org/2000/svg"
   xmlns="http://www.w3.org/2000/svg"
   xmlns:sodipodi="http://sodipodi.sourceforge.net/DTD/sodipodi-0.dtd"
   xmlns:inkscape="http://www.inkscape.org/namespaces/inkscape"
   width="128"
   height="128"
   viewBox="0 0 36.124443 36.124444"
   version="1.1"
   id="svg8"
   inkscape:version="0.91 r13725"
   sodipodi:docname="logo_FR_Unit_Patches.svg"
   inkscape:export-filename="D:\Documents\GitHub\FR_Unit_Patches\Extras\Logos\logo_FR_Unit_Patches small.png"
   inkscape:export-xdpi="45"
   inkscape:export-ydpi="45">
  <defs
     id="defs2" />
  <sodipodi:namedview
     id="base"
     pagecolor="#ffffff"
     bordercolor="#666666"
     borderopacity="1.0"
     inkscape:pageopacity="0.0"
     inkscape:pageshadow="2"
     inkscape:zoom="2.8284271"
     inkscape:cx="47.356531"
     inkscape:cy="30.151821"
     inkscape:document-units="px"
     inkscape:current-layer="layer1"
     showgrid="false"
     showguides="true"
     inkscape:lockguides="true"
     inkscape:window-width="1920"
     inkscape:window-height="1017"
     inkscape:window-x="-8"
     inkscape:window-y="-8"
     inkscape:window-maximized="1"
     fit-margin-top="0"
     fit-margin-left="0"
     fit-margin-right="0"
     fit-margin-bottom="0"
     units="px" />
  <metadata
     id="metadata5">
    <rdf:RDF>
      <cc:Work
         rdf:about="">
        <dc:format>image/svg+xml</dc:format>
        <dc:type
           rdf:resource="http://purl.org/dc/dcmitype/StillImage" />
        <dc:title />
      </cc:Work>
    </rdf:RDF>
  </metadata>
  <g
     inkscape:label="Layer 1"
     inkscape:groupmode="layer"
     id="layer1"
     transform="translate(254.10849,43.015179)">
    <g
       id="g4320"
       transform="matrix(1.8344769,0,0,1.8344769,315.59374,5.7501617)"
       style="fill:#cad4d7;fill-opacity:1" />
    <g
       id="g4551"
       transform="matrix(0.28985485,0,0,0.28985485,-176.49722,0.94864089)">
      <path
         sodipodi:nodetypes="csssscsssssccsscssssscccccsccccsscscssscscsscsscsssssscccsccccscsssssccsssssccssscc"
         inkscape:connector-curvature="0"
         id="path4148"
         d="m -215.32175,-27.73719 c -1.70113,-0.473356 -2.14537,-0.746757 -4.01116,-2.46868 -1.16992,-1.079729 -1.21936,-1.091824 -3.05784,-0.747953 -1.02776,0.192237 -3.01536,0.282726 -4.41688,0.201088 -3.13069,-0.182365 -4.89393,-1.018511 -7.25395,-3.439888 l -1.70337,-1.747646 -4.11896,0.108712 c -4.75891,0.125588 -6.32247,-0.301253 -7.96778,-2.175164 -1.64778,-1.876712 -1.79924,-4.861517 -0.34079,-6.715643 0.98774,-1.255687 5.19959,-3.754404 8.01543,-4.75522 2.17296,-0.772329 5.39966,-1.532406 9.50891,-2.239927 2.04586,-0.352253 6.00517,-3.913811 6.55458,-5.896088 l 0.39641,-1.430371 -2.6758,-2.718082 c -1.4732,-1.496485 -3.19839,-3.670647 -3.83861,-4.837554 -0.73201,-1.334215 -1.38178,-2.120967 -1.75378,-2.123502 -1.86538,-0.01266 -6.66867,-2.772748 -9.71962,-5.585028 -2.83686,-2.614906 -4.42986,-5.71803 -4.97677,-9.694541 -0.1922,-1.397442 -0.6052,-2.294661 -1.78972,-3.888073 -2.08239,-2.801188 -3.99734,-6.961501 -4.88244,-10.607223 -0.94145,-3.877817 -1.01129,-9.515007 -0.15703,-12.672057 0.60686,-2.24267 2.27334,-5.87735 3.15275,-6.87642 0.43675,-0.49615 0.42508,-0.69969 -0.0974,-1.6988 -0.32647,-0.62431 -0.61101,-1.89958 -0.63231,-2.83392 -0.024,-1.0535 -0.28704,-2.07283 -0.69235,-2.68345 -0.41166,-0.62021 -0.69888,-1.75199 -0.77598,-3.05785 -0.10585,-1.79197 1.8e-4,-2.25941 0.78139,-3.4461 0.70681,-1.07366 2.2077,-2.39387 3.48175,-3.06259 0.0492,-0.0258 -0.14199,-0.60062 -0.4247,-1.27734 -0.70815,-1.69485 -0.64763,-2.57216 0.30769,-4.45912 0.45196,-0.89278 0.92082,-2.01784 1.04186,-2.50013 0.32905,-1.31106 1.45338,-2.7279 2.65977,-3.35174 1.11821,-0.57825 4.33085,-0.73428 6.85854,-0.33312 l 1.35905,0.21569 0.78195,-1.68058 c 0.99012,-2.12799 2.43646,-3.07423 4.69432,-3.07118 1.73879,0.002 3.16573,0.68929 4.04782,1.94865 0.38796,0.55387 0.9505,0.71603 2.85786,0.82381 2.0479,0.11571 2.51335,0.26687 3.38083,1.09798 0.5533,0.53009 1.2025,1.43824 1.44271,2.01812 0.24019,0.57988 1.0797,1.67043 1.86559,2.42344 0.78589,0.75301 1.54144,1.81751 1.67897,2.36555 0.13758,0.54804 0.60873,1.52491 1.04706,2.17082 1.57222,2.3168 0.8474,5.76311 -1.76058,8.37109 l -1.19388,1.19389 0.37607,3.8266 c 0.3256,3.31298 0.2904,4.39862 -0.26224,8.08823 -0.66245,4.42253 -0.56583,9.92743 0.21005,11.96812 0.38434,1.01095 2.87128,2.96672 3.77245,2.96672 1.21276,0 2.40205,-1.5154 4.60601,-5.86899 3.21387,-6.34854 5.58233,-9.85538 8.77166,-12.98772 4.85751,-4.77071 9.35941,-6.77666 15.15705,-6.75363 7.91058,0.0314 16.38432,3.90214 20.9274,9.55944 1.85473,2.30964 4.25135,7.18044 5.05564,10.27497 1.25331,4.82222 0.98759,17.461376 -0.4877,23.195852 l -0.63183,2.45606 0.91051,1.019281 c 0.50079,0.560605 1.25981,1.420179 1.68671,1.910164 l 0.77618,0.890882 -3.75576,0.931757 -3.75576,0.931755 0.0165,1.914726 c 0.009,1.053101 0.28821,3.714381 0.61941,5.913955 l 0.60217,3.999228 -1.89351,1.026366 c -2.27908,1.235371 -5.49855,2.422753 -9.28396,3.424054 -5.06352,1.339383 -12.38675,0.91102 -15.953,-0.933156 -0.52218,-0.270027 -0.94941,-0.35567 -0.94941,-0.190319 0,0.165359 0.54339,1.476739 1.20754,2.914196 0.66416,1.437458 1.50541,3.778206 1.86946,5.201665 0.36407,1.423455 0.6998,2.617758 0.74609,2.654004 0.0462,0.03625 1.49953,0.467452 3.22943,0.958233 3.44694,0.977921 6.70664,2.489556 8.62108,3.997903 2.45903,1.937399 3.10306,5.217884 1.54425,7.865757 -1.14928,1.952201 -6.62611,6.903006 -8.62764,7.798985 -1.12727,0.504613 -2.50984,0.765446 -4.51309,0.851413 -2.48973,0.10684 -3.12105,0.01321 -4.57832,-0.678475 l -1.69036,-0.802415 -1.39516,0.941574 c -2.52209,1.702136 -4.02179,1.791945 -8.10407,0.485297 -2.2665,-0.725459 -2.68826,-0.686618 -5.08565,0.468316 -2.48441,1.196868 -5.19698,1.531834 -7.41253,0.915349 z"
         style="fill:#21304d;fill-opacity:1;stroke-width:0.26458335" />
      <g
         id="g4519">
        <g
           id="g4450"
           transform="matrix(1.8344769,0,0,1.8344769,212.04767,5.7501617)">
          <path
             sodipodi:nodetypes="ccsscsccsssssscssssccccsssscc"
             inkscape:connector-curvature="0"
             style="fill:#ffffff;stroke-width:0.18520837"
             d="m -221.46388,-29.343101 -1.04732,-0.14309 c -0.28012,-7.6e-5 -1.19527,0.13569 -2.03343,0.302065 -1.4726,0.292309 -1.55371,0.290407 -2.40771,-0.06835 -1.42609,-0.599087 -1.7684,-0.629305 -2.53118,-0.220489 -0.80797,0.433053 -2.20273,0.546053 -4.69029,0.379239 -0.86896,-0.05827 -1.2995,-0.102339 -1.47349,-0.178732 l -2.83563,-0.07095 c -0.11187,0.135533 -0.35018,0.204694 -0.84968,0.288821 -1.13583,0.191298 -3.30994,0.6202 -4.89424,0.965728 -1.35578,0.295693 -4.21904,1.671554 -4.52328,2.173441 -0.33861,0.558597 0.20489,0.692232 2.67119,0.658704 2.76436,-0.03758 3.47814,0.188214 4.5128,1.425992 0.38012,0.454751 0.94712,0.959068 1.25953,1.120623 0.63631,0.329046 2.39512,0.368641 3.58069,0.08048 1.32095,-0.321082 1.82845,-0.239172 2.41929,0.391363 0.29919,0.319289 0.91909,0.825661 1.37748,1.125031 0.71198,0.464986 0.95409,0.528399 1.66081,0.43601 0.45501,-0.05948 1.16344,-0.331876 1.57428,-0.605234 1.20311,-0.800512 3.32944,-0.722014 5.47356,0.201744 0.27198,0.117184 1.30254,-0.472019 2.46063,-1.4067 l 0.51979,-0.419475 1.26614,0.692328 c 0.99769,0.545603 1.46742,0.692324 2.21754,0.692324 1.35555,0 1.93027,-0.316912 3.79843,-2.095169 1.60853,-1.531112 1.64658,-1.586769 1.37087,-2.002014 -0.4095,-0.616743 -2.23462,-1.568498 -3.95111,-2.029573 -2.09844,-0.563673 -3.05736,-0.615018 -3.22928,-1.359327 z"
             id="path4230" />
          <path
             id="path4270"
             d="m -222.19734,-28.396291 c -0.16124,0.02576 -0.59916,0.04784 -0.87777,0.07372 -0.63666,0.05913 -1.63209,0.162016 -2.21203,0.228753 -0.86477,0.09951 -1.23936,0.04509 -2.08359,-0.30482 -1.02529,-0.424962 -1.03214,-0.425334 -1.72365,-0.07497 -0.57183,0.28973 -1.20656,0.363342 -3.59668,0.420026 -2.75909,0.06544 -2.91181,0.05044 -3.10224,-0.305373 l -3.9636,0.525899 c -0.36931,0.09469 -1.00555,0.187533 -1.51489,0.246354 -0.20038,0.02314 -0.4332,0.07231 -0.57912,0.05734 -0.14892,-0.01528 -0.2195,-0.02406 -0.24083,-0.0467 l -0.41036,-0.03682 c -0.33362,0.194852 -1.00771,0.386281 -1.63656,0.54598 -1.95221,0.495775 -2.18664,0.704827 -0.79816,0.711618 1.73327,0.0085 3.0854,0.587166 4.2201,1.806332 1.11797,1.201174 1.64695,1.323673 3.95387,0.916118 1.93388,-0.341649 2.37862,-0.221942 3.65015,0.980612 1.22701,1.160459 1.89711,1.232964 3.26705,0.353882 0.80746,-0.518146 1.04354,-0.577325 2.24455,-0.563341 0.77825,0.0091 1.84089,0.171179 2.53063,0.385848 1.29595,0.403347 1.14248,0.444664 2.49149,-0.676339 0.9679,-0.804306 1.67538,-0.794479 3.1739,0.04355 1.8734,1.047668 2.46236,0.919506 4.52272,-0.983919 l 1.3863,-1.280473 -0.92328,-0.467431 c -0.50784,-0.257068 -1.27025,-0.571164 -1.69388,-0.69784 l -1.3593,-0.399083 c -0.47404,-0.01459 -1.89771,-0.322331 -2.00973,-0.434357 z"
             style="fill:#cad4d7;fill-opacity:1;stroke-width:0.26458335"
             inkscape:connector-curvature="0"
             sodipodi:nodetypes="cssssscccsccscsssscsssccccccc" />
          <path
             sodipodi:nodetypes="ccsscscssccccccsssccccscscssccccc"
             inkscape:connector-curvature="0"
             id="path4696"
             d="m -228.46341,-27.44199 c -0.21804,-0.0092 -0.39867,0.04307 -0.63955,0.15229 -0.19394,0.08794 -0.48384,0.187702 -0.64425,0.222105 -0.45871,0.09838 -1.8183,0.160683 -4.27281,0.195337 -2.53049,0.03573 -3.3775,0.09086 -3.83837,0.249598 -0.17247,0.0594 -0.63139,0.14667 -1.0201,0.194251 -1.32886,0.162659 -1.9085,0.244521 -1.93745,0.273472 -0.0685,0.06856 0.1668,0.372462 0.73396,0.947745 0.55605,0.564013 0.63447,0.623626 0.93653,0.710809 0.39712,0.11462 0.9689,0.09026 2.17982,-0.0926 0.5286,-0.07983 1.07098,-0.121775 1.59959,-0.123712 0.70717,-0.0026 0.83623,0.01185 1.11595,0.12299 0.44362,0.176244 0.86408,0.472511 1.50374,1.059882 0.30333,0.278546 0.68794,0.614746 0.85477,0.747345 0.16684,0.1326 0.31582,0.241362 0.33099,0.24164 0.0152,3.7e-4 0.52375,-0.247166 1.13042,-0.549838 0.60668,-0.302671 1.25096,-0.588056 1.43175,-0.634482 0.4338,-0.111399 1.73021,-0.111687 2.50466,-3.71e-4 0.32239,0.04634 1.00019,0.185983 1.50626,0.310368 l 0.92025,0.226445 0.48618,-0.414547 c 0.99505,-0.847805 1.53309,-1.1058 2.30642,-1.106909 0.60673,-9.1e-4 1.02489,0.12999 2.05429,0.643887 0.87823,0.438428 1.2197,0.552092 1.6477,0.548753 0.48433,-0.0038 0.89787,-0.239223 1.55547,-0.885165 0.43066,-0.423027 0.50808,-0.523769 0.45253,-0.590714 -0.14922,-0.179791 -1.88901,-0.729253 -3.06281,-0.967279 -0.30334,-0.06151 -0.81633,-0.17694 -1.14019,-0.256471 -0.32386,-0.07953 -0.42605,-0.08978 -0.67355,-0.112138 -1.8001,-0.178204 -3.64423,-0.214128 -5.4249,-0.459045 -0.28761,-5.55e-4 -0.97238,-0.173395 -1.73272,-0.437698 -0.3912,-0.135994 -0.64649,-0.206722 -0.86454,-0.215957 z"
             style="opacity:1;fill:#b0babf;fill-opacity:1;fill-rule:nonzero;stroke:none;stroke-width:0.04136429;stroke-miterlimit:4;stroke-dasharray:none;stroke-opacity:1" />
        </g>
        <g
           id="g4492">
          <g
             transform="matrix(1.8344769,0,0,1.8344769,212.04767,5.7501617)"
             id="g4503">
            <path
               style="fill:#cad4d7;fill-opacity:1;stroke-width:0.26458335"
               d="m -241.52149,-83.011395 c -0.11839,0 -0.45378,0.547501 -0.74524,1.216532 -0.29146,0.669032 -0.72898,1.346262 -0.9718,1.505369 -0.40034,0.26231 -0.53156,0.262556 -1.40945,-0.0011 l -0.65981,4.015052 c 0.1004,0.128499 0.0852,0.254105 0.0386,0.450343 -0.26759,1.1275 -1.30128,1.623323 -2.99475,1.436466 -0.8197,-0.09044 -1.20136,-0.04233 -1.70436,0.214423 -1.12713,0.575324 -0.94689,1.478608 0.41727,2.090208 0.68339,0.30639 0.68923,0.317119 0.33128,0.641064 -0.53112,0.480652 -0.84282,1.523012 -0.55783,1.866417 0.31017,0.373733 1.29333,0.338342 2.41156,-0.08654 0.4244,-0.165238 0.53922,-0.165111 0.6124,-0.177492 -0.47774,0.669798 -1.04327,1.385581 -1.64813,2.021857 -3.01309,3.173202 -3.77814,6.102267 -2.75497,10.551362 0.37228,1.618827 1.53901,3.960393 2.53779,5.093227 0.72994,0.827925 1.33274,1.002671 1.52081,2.24455 0.32933,2.174821 0.53681,2.69369 1.4971,3.742752 0.76847,0.839512 1.12134,1.606186 1.98437,2.124936 1.11433,0.669803 2.25574,1.044064 3.2902,1.051167 0.21437,0.06791 0.42916,0.129199 0.64438,0.187413 0.0888,0.128194 0.15001,0.343684 0.24473,0.713271 0.39068,1.524375 2.12379,3.73857 3.70913,4.739349 0.40288,0.254325 0.78357,0.623677 0.84612,0.820759 0.15605,0.491682 -0.3592,2.859882 -0.83675,3.846381 -0.30499,0.630033 -1.62692,1.974841 -2.5659,2.610005 -0.0425,0.02874 -0.0909,0.239386 -0.10694,0.468531 -0.0244,0.348443 -0.17803,0.442019 -0.94092,0.570509 -1.28662,0.134369 -2.55672,-0.01149 -3.09728,1.194483 -0.0523,0.07463 -0.0756,0.174941 -0.11851,0.340651 l -0.12789,0.503258 0.26624,-0.216074 c 0.21192,-0.241735 0.20708,-0.326252 0.38365,-0.490031 0.23891,-0.359834 1.61253,-0.589255 1.9987,-0.369314 0.15694,0.106331 0.27065,0.258516 0.27065,0.258519 0.12516,0.243916 0.17028,0.304131 0.28167,0.399632 0.64327,0.497665 1.28654,0.502652 1.92981,0.321358 0.77439,-0.392896 2.28537,-0.788255 1.75231,-1.246849 -0.11016,-0.205833 -0.20009,-0.424671 -0.20009,-0.486173 l 0.28883,-0.641062 c 0.0971,-0.152798 0.17814,-0.492698 0.1797,-0.755165 0.004,-0.609873 1.44088,-3.284677 2.4959,-4.644539 0.8748,-1.127588 1.39623,-2.030196 1.39623,-2.417631 0,-0.133135 -0.62196,-1.032837 -1.3819,-1.999809 l -1.38189,-1.758377 -0.24529,-0.389157 c -0.14751,-0.02055 -0.0755,-0.294473 0.0469,-0.635 0.94349,0.06132 1.89658,0.107784 2.8575,0.16757 0.0907,0.117534 0.18613,0.239378 0.24584,0.324115 l 0.1367,0.22269 3.09949,3.210828 c 2.94043,3.045849 4.71657,5.283474 5.77839,7.280452 0.41112,0.609843 0.36092,1.119799 0.51538,1.7242 0.0341,0.0654 0.0441,0.157094 0.0441,0.284427 0,0.143682 -0.0143,0.240535 -0.0761,0.311988 l 0.006,5.64e-4 -0.009,0.005 c -0.0476,0.05208 -0.12209,0.09019 -0.24198,0.120718 -5.7e-4,1.67e-4 -5.7e-4,2.54e-4 -0.002,5.65e-4 l -1.59632,0.798161 c -0.57057,0.296872 -1.29,0.597314 -1.82287,0.888006 -1.1e-4,0.02275 -0.25581,0.171092 -0.5683,0.329627 -0.56793,0.288135 -1.03758,0.630914 -0.96518,0.705005 0.0211,0.02162 0.15487,-4.5e-5 0.29711,-0.04851 0.23026,-0.07846 0.90705,-0.189515 1.70546,-0.279465 l 0.27616,-0.03087 -0.22104,0.128433 c -0.12133,0.07073 -0.33202,0.192795 -0.46853,0.270649 -0.36113,0.205968 -0.76063,0.575363 -0.8847,0.818554 -0.13921,0.272782 -0.13682,0.302579 0.0204,0.19954 0.24182,-0.158454 0.62011,-0.200615 3.31777,-0.369316 1.72576,-0.107919 2.11895,-0.26376 2.47826,-0.981713 0.0732,-0.146256 0.16331,-0.27559 0.21443,-0.311988 l -0.003,-0.03142 1.00818,-1.008174 c -0.008,-0.0048 -0.026,-0.01115 -0.0303,-0.01544 0.15529,-0.03813 0.15298,-0.256167 0.35388,-0.279467 0.40625,0.01925 0.87845,0.131086 1.24189,0.274506 l 0.73146,0.147173 c -0.24866,-0.334585 -0.33135,-0.530154 -0.61516,-0.765084 -2.14006,-0.626201 -2.17854,-0.906182 -2.73568,-3.144684 -0.21058,-0.846125 -0.88147,-2.591432 -1.49103,-3.878351 -0.96975,-2.047381 -1.66108,-3.955798 -2.12163,-5.858865 l -0.0667,-0.275057 c 0.24029,0.03024 0.48058,0.06073 0.71162,0.09591 l 2.42865,0.873675 0.74084,0.110795 -0.043,-0.306477 c -0.0308,-0.172206 -0.1089,-1.172946 -0.26789,-2.642525 -0.38475,-3.556612 -0.95856,-7.084923 -1.2711,-7.818436 -0.48654,-1.141817 -1.56184,-1.796358 -3.72401,-2.26715 l -1.11456,-0.243083 -0.91612,-2.643079 c -2.18189,-0.374777 -6.5587,1.341727 -7.34384,-0.03693 l -1.46127,-2.565907 -0.12292,-0.497194 -1.73412,-16.312115 c -0.19083,-0.334913 -0.0898,-0.569405 0.29655,-0.569405 0.1493,0 0.35077,0.208359 0.44759,0.463021 0.20149,0.529968 0.4112,0.582393 0.74083,0.185208 0.12692,-0.152892 0.46466,-0.277842 0.75085,-0.277842 0.91063,0 1.76036,-1.69356 0.96243,-1.918229 -0.17827,-0.05019 -0.60274,-0.147395 -0.94313,-0.216077 l -0.61902,-0.125125 0.48011,-0.501055 c 0.83153,-0.867928 0.66886,-1.007812 -1.00156,-0.862101 -0.81492,0.07109 -1.48166,0.06741 -1.48166,-0.0077 0,-0.07516 0.25276,-0.584271 0.56168,-1.131645 0.30891,-0.547372 0.51768,-1.065953 0.46413,-1.152591 -0.0536,-0.08664 -0.78554,-0.0023 -1.62664,0.187964 -0.84109,0.190235 -1.58568,0.347957 -1.65475,0.350573 -0.0691,0.0026 -0.18301,-0.45343 -0.25301,-1.013684 -0.0722,-0.577432 -0.22028,-1.018647 -0.3423,-1.018647 z"
               id="path4306"
               inkscape:connector-curvature="0"
               sodipodi:nodetypes="ssccccssssccccsscssccssssccccccccccccccccssscccccccccscccccccsccccccccscccccccccccccccccsccccscccsscsccccsscccccs" />
            <path
               style="fill:#cad4d7;fill-opacity:1;fill-rule:evenodd;stroke:none;stroke-width:0.28222221px;stroke-linecap:butt;stroke-linejoin:miter;stroke-opacity:1"
               d="m -219.23143,-59.785394 2.83488,1.459656 4.85586,7.116145 0.0951,-2.773066 -4.28072,-6.283357 z"
               id="path4365"
               inkscape:connector-curvature="0"
               sodipodi:nodetypes="cccccc" />
          </g>
          <g
             transform="matrix(1.8344769,0,0,1.8344769,212.04767,5.7501617)"
             id="g4482">
            <path
               sodipodi:nodetypes="ccccssccccccccccc"
               inkscape:connector-curvature="0"
               id="path4215"
               d="m -241.15103,-73.420192 -0.0328,2.565561 -0.2114,2.15547 0.0472,8.91029 c 0.18093,1.567025 0.9732,2.162799 1.92817,2.997872 1.34778,1.178562 3.61977,2.291426 6.01167,2.944885 0.51863,0.141688 2.14919,0.165195 2.05705,0.0746 l -1.57122,-0.581995 -2.67997,-1.388984 c -0.36963,-0.366617 -2.79107,-3.386711 -2.93029,-5.032286 l -0.36039,-9.565834 -0.85134,-5.406896 -4.96887,-0.0018 c 0.04,0.215961 0.0917,0.424035 0.13937,0.620204 0.2431,0.960433 0.1988,2.128869 -0.11684,3.078003 -0.0888,0.267148 0.002,0.606369 0.002,0.623519 z"
               style="opacity:1;fill:#b0babf;fill-opacity:1;fill-rule:nonzero;stroke:none;stroke-width:0.04136429;stroke-miterlimit:4;stroke-dasharray:none;stroke-opacity:1" />
            <path
               sodipodi:nodetypes="cscccccccccc"
               inkscape:connector-curvature="0"
               id="path4203"
               d="m -233.34213,-47.69047 c -0.18924,-1.86e-4 -0.34463,0.0786 -0.98682,0.500281 -0.27573,0.181055 -0.60882,0.35617 -0.7401,0.389225 -0.20552,0.05175 -0.427,0.208823 -0.44829,0.308626 l 0.37742,1.156464 1.02829,1.942019 2.44591,0.74466 2.3696,0.256121 0.26198,-0.08098 c -1.29856,-1.334342 -2.5441,-3.196789 -3.33336,-4.785692 -0.33421,-0.426943 -0.48728,-0.278894 -0.97463,-0.430657 z"
               style="opacity:1;fill:#b0babf;fill-opacity:1;fill-rule:nonzero;stroke:none;stroke-width:0.04136429;stroke-miterlimit:4;stroke-dasharray:none;stroke-opacity:1" />
            <path
               style="opacity:1;fill:#b0babf;fill-opacity:1;fill-rule:nonzero;stroke:none;stroke-width:0.04136429;stroke-miterlimit:4;stroke-dasharray:none;stroke-opacity:1"
               d="m -226.92071,-50.057437 -1.15447,0.517652 -2.09083,0.861215 c 0,0.05174 0.24287,0.452369 0.35658,0.555103 0.42151,0.380673 3.5288,2.889648 4.03587,3.189634 0.36914,0.218386 0.84463,0.239461 0.84408,0.09839 l -0.66702,-4.427271 z"
               id="path4207"
               inkscape:connector-curvature="0"
               sodipodi:nodetypes="ccccsccc" />
            <path
               style="opacity:1;fill:#b0babf;fill-opacity:1;fill-rule:nonzero;stroke:none;stroke-width:0.04136429;stroke-miterlimit:4;stroke-dasharray:none;stroke-opacity:1"
               d="m -216.56486,-70.035928 c -0.39662,0.0032 -0.77479,0.03262 -1.1268,0.08971 -2.05477,0.333273 -3.88577,1.437639 -5.74725,3.466144 -1.23736,1.348389 -2.14098,2.76131 -3.81956,5.966459 -1.03128,1.969181 -1.27607,3.267743 -3.85682,4.325626 4.54231,-0.482308 6.72551,-7.877068 11.02641,-10.358643 1.14322,-0.659627 2.37715,-1.041925 4.08109,-0.981388 1.39762,0.04966 2.69169,0.377438 3.85971,0.977408 1.23275,0.633221 3.00858,2.14669 3.88178,3.308428 0.77954,1.037124 1.33257,2.698577 1.66109,4.989049 0.23276,1.622837 0.30414,2.861114 0.35884,6.233057 0.0487,3.003413 0.0754,3.755088 0.14578,4.122332 0.0454,0.237287 0.19273,0.111277 0.44855,-0.3838 0.41123,-0.795856 0.81417,-2.252465 0.98465,-3.558387 0.11645,-0.892063 0.17592,-6.849904 0.0792,-7.943702 -0.20532,-2.322083 -1.50888,-5.02475 -3.26865,-6.777105 -0.92119,-0.917312 -1.81277,-1.533995 -3.10332,-2.146536 -1.81764,-0.862721 -3.88604,-1.34242 -5.60472,-1.328653 z"
               id="path4211"
               inkscape:connector-curvature="0"
               sodipodi:nodetypes="ccsscsssssscssssscc" />
            <path
               sodipodi:nodetypes="ccsscccccccsssscccccscc"
               inkscape:connector-curvature="0"
               style="fill:#b0babf;fill-opacity:1;stroke-width:0.26458335"
               d="m -214.78436,-43.700936 c -0.003,-0.178263 -0.0823,-2.241025 -0.17584,-4.583904 -0.24664,-6.173475 -0.72071,-8.248102 -2.18778,-9.573507 -1.18958,-1.07472 -2.80799,-1.345893 -4.86006,-0.813593 -0.55685,0.144441 -1.03881,0.236701 -1.07101,0.204501 l -0.38448,0.04427 c -2.18759,0.94957 -5.14266,2.441607 -5.02745,2.628021 0.005,0.0083 0.0128,0.01624 0.0198,0.02424 l 0.0631,0.05568 c 0.20481,0.142252 0.73126,0.237844 1.84701,0.317794 l 0.0329,-0.07884 c -0.0905,-0.09219 0.60689,-0.262606 1.93335,-0.593926 1.37517,-0.343487 2.75035,-0.626437 3.05594,-0.628937 1.47863,-0.01199 3.382,1.634289 3.87669,3.353042 0.15618,0.542623 0.36766,2.153488 0.47019,3.579594 0.10252,1.426097 0.23872,3.113814 0.30262,3.750467 0.0639,0.636654 0.075,1.157552 0.0248,1.157552 l 0.0246,0.115625 c 0.2319,1.782018 0.22661,1.355756 0.73943,3.022443 0.48947,1.633731 1.92024,2.787861 3.45171,2.78474 1.33012,-0.0028 1.57293,-0.222829 0.78383,-0.710517 -0.85554,-0.528748 -2.25877,-2.062436 -2.58111,-2.703197 -0.14453,-0.408135 -0.30315,-0.797495 -0.33824,-1.351548 z"
               id="path4266" />
          </g>
          <g
             id="g4477">
            <path
               inkscape:connector-curvature="0"
               transform="matrix(0.2822222,0,0,0.2822222,-254.10849,-176.22406)"
               style="fill:#ffffff;fill-opacity:1;stroke-width:0.18520837"
               d="m 93.369141,152.42383 c 0,0 1.518191,5.99233 1.908203,45.40234 0.351142,35.4689 0.474195,37.1284 3.597656,48.75781 3.88672,14.46779 7.90525,23.04636 13.16016,28.09766 1.91646,1.8422 5.02824,4.80152 7.41015,7.06055 16.8581,6.2831 31.85692,4.06219 47.07227,0.37304 -1.04783,-1.69543 36.97624,-20.00506 45.73633,-22.02343 10.13995,-2.33635 17.90236,-3.1163 19.23047,-2.84375 18.63145,3.22334 39.57399,22.56129 45.17773,46.65625 1.0109,3.6458 9.01774,18.31733 12.83789,24.12304 0.47218,0.76547 0.93995,1.39709 1.38281,1.91797 -0.0458,0.35024 -0.0691,0.59675 -0.11719,0.95703 -0.61231,2.38262 -0.74319,4.506 -0.84374,7.33008 0.0248,12.52571 4.52838,28.76237 9.95117,35.89649 1.5942,2.09537 1.76677,0.25365 1.62695,-17.45508 l -0.0469,-5.96875 0,-0.0625 -0.33593,-12.71094 0.22656,-1.05664 c 0.0206,-0.067 0.0382,-0.12673 0.0586,-0.19336 0.41674,0.11573 0.8298,0.21376 1.23243,0.27539 l 3.94921,0.25391 c 1.6526,0.1794 3.50284,0.22417 5.04493,0.0898 l -2.03907,-2.65039 c -0.74542,-0.96771 -2.95005,-3.63356 -5.52343,-6.71289 0.13975,-0.43373 0.26544,-0.83956 0.41797,-1.29883 0.72223,-2.34125 2.27394,-10.74329 2.22851,-24.54101 -0.14492,-46.06009 -21.54414,-82.53225 -51.16601,-87.20899 -17.00412,-2.68458 -33.78635,3.63777 -51.82618,19.52344 -11.19857,10.28356 -18.67845,22.34249 -28.91015,31.57812 l -0.25,0.15235 c -5.9129,5.22528 -12.86744,9.61636 -22.1875,12.4414 -6.34086,2.13605 -8.07698,2.27618 -13.10352,1.07032 -3.18671,-0.76447 -8.23742,-3.00768 -11.22461,-4.98633 C 84.254523,246.8973 113.6175,193.69162 96.775381,157.48629 c 12.304209,15.71439 3.554839,48.19138 6.982419,73.86523 1.13726,8.93892 2.70026,15.96363 6.59375,24.38282 l 4.08789,6.17187 -1.04492,-8.32617 c -2.10199,-10.69193 -2.13804,-36.02655 0.10938,-50.56446 2.84432,-18.39901 -1.09383,-38.08187 -9.26172,-46.61132 -0.47126,-0.66072 -0.94666,-1.20604 -1.44141,-1.65821 -2.33748,-2.13658 -4.981281,-2.1378 -9.431639,-2.32226 z m 154.884769,77.97851 c 3.83873,-0.061 7.40741,0.395 10.67187,1.37305 6.98914,2.09402 16.64093,11.49459 21.71289,21.14649 6.89117,13.11406 10.49278,27.38779 11.3086,44.82617 l 0.55468,11.88867 c -0.15529,-0.43723 -0.29734,-0.81403 -0.41797,-1.04492 -0.76882,-1.47177 -4.48413,-8.19024 -5.48437,-15.32618 -1.00024,-7.13594 -3.37023,-15.14053 -4.07227,-17.78906 -4.83158,-18.23081 -22.93159,-33.29587 -42.16406,-35.09179 -19.23256,-1.45011 -37.81469,9.76149 -55.70117,19.66992 5.85967,-4.63881 27.33703,-18.31382 34.69336,-21.80469 10.70026,-5.0777 20.45321,-7.71345 28.89844,-7.84766 z"
               id="path4290" />
            <path
               id="path4284"
               d="m -179.29648,-73.451344 c -0.50202,0.01192 -1.14959,-0.0064 -1.82824,-0.0689 -1.21464,-0.111701 -2.47966,-0.324585 -2.81112,-0.473236 -0.33143,-0.148666 -1.23368,-1.351632 -2.00519,-2.67258 -1.35019,-2.311912 -1.43836,-2.645901 -2.35,-8.94096 -0.52088,-3.596805 -1.17882,-6.987436 -1.46219,-7.535396 -0.95235,-1.841633 -2.41215,-2.238365 -9.20893,-2.500678 -5.3738,-0.207397 -7.41088,-0.406164 -7.99953,-0.815022 -4.16143,1.171433 -8.69709,1.665507 -13.1192,0.05463 1.73194,1.639294 4.85323,3.100514 7.40699,3.5149 1.18762,0.19271 4.14751,0.352834 6.57678,0.35594 5.28284,0.0064 10.06787,0.508121 11.54782,1.210395 1.45809,0.691926 2.05811,2.103362 3.06897,7.214855 1.5154,7.662986 2.82071,10.53264 5.13684,11.297031 1.2134,0.400465 5.0672,0.289851 6.27646,-0.17998 z"
               style="fill:#ffffff;stroke-width:0.18520837"
               inkscape:connector-curvature="0"
               sodipodi:nodetypes="cccscsccscsssccc" />
            <path
               id="path4296"
               d="m -242.27653,-97.119433 0.007,2.038563 c 0.0128,3.901737 0.65083,10.816215 1.15983,12.567084 0.52679,1.812098 2.41631,4.295446 4.27532,5.619195 l 0.9859,0.701766 -0.99399,-2.13867 c -1.20102,-2.585321 -1.69614,-5.459324 -1.69981,-9.849007 -0.001,-1.813753 -0.15465,-3.385707 -0.34077,-3.500747 -1.71302,-2.219411 -2.88486,-4.388342 -3.39356,-5.438184 z"
               style="fill:#ffffff;stroke-width:0.18520837"
               inkscape:connector-curvature="0"
               sodipodi:nodetypes="ccccccccc" />
            <path
               sodipodi:nodetypes="csscccccsscscc"
               inkscape:connector-curvature="0"
               style="fill:#ffffff;fill-opacity:1;stroke-width:0.18520837"
               d="m -179.32176,-72.216802 c 0.33125,1.656285 2.28745,3.895521 4.29047,4.911354 1.75437,0.889734 4.09938,1.260786 4.09938,0.648177 0,-0.157801 -0.77728,-1.175604 -1.72712,-2.261026 -0.94984,-1.085432 -1.8804,-2.370292 -2.06687,-2.855607 -0.18644,-0.485305 -0.40069,-3.481927 -0.47627,-6.658692 -0.0756,-3.176757 -0.35781,-7.22608 -0.62796,-8.998596 -0.32002,-6.973083 -6.74693,-14.829468 -13.05069,-15.993708 l -0.35203,-0.0491 c -0.0391,-0.006 0.30685,0.22024 0.42138,0.28786 0.17281,0.10204 0.43207,0.33888 0.89357,0.63258 2.20433,0.99402 4.96263,3.887149 6.17535,6.478709 1.27314,2.720636 1.55068,5.007878 1.84541,15.1608 0.0648,3.305002 -0.23074,6.582455 0.57538,8.697275 z"
               id="path4298" />
            <path
               id="path4300"
               d="m -191.25788,-78.348684 -0.2447,1.957668 c -0.3138,2.511549 -0.006,5.795382 0.71391,7.593035 1.15526,2.887318 4.24309,4.304124 9.62451,4.418909 l 2.16901,0.04648 -2.4673,-1.233652 c -2.85938,-1.430483 -6.30034,-4.612706 -7.48485,-6.920598 -0.43159,-0.840907 -1.12857,-2.503272 -1.54813,-3.694895 z"
               style="fill:#ffffff;stroke-width:0.18520837"
               inkscape:connector-curvature="0"
               sodipodi:nodetypes="ccccscccc" />
            <path
               sodipodi:nodetypes="csscscccc"
               inkscape:connector-curvature="0"
               style="fill:#ffffff;stroke-width:0.18520837"
               d="m -228.17041,-91.895621 -0.4247,1.635097 c -0.63897,2.463545 -0.54717,2.920722 0.83828,4.230829 4.14045,3.915322 8.27635,4.876136 14.52475,3.371313 1.49497,-0.36004 3.25322,-0.888611 3.90725,-1.173995 1.15388,-0.503498 1.06823,-0.519133 -2.88796,-0.536943 -4.1692,-0.01875 -7.45148,-0.567722 -9.44655,-1.57948 -1.87122,-0.948953 -4.21871,-2.887144 -5.38764,-4.447226 z"
               id="path4302" />
            <path
               id="path4304"
               d="m -227.79526,-98.138714 0.99502,1.843398 c 1.29186,2.390365 4.93241,6.07097 7.19159,7.271477 2.1055,1.118877 6.63411,2.316233 11.81174,3.122566 3.49502,0.544363 5.5966,1.213316 5.61311,1.786775 0.4724,4.905507 1.27115,8.412902 2.52596,12.530683 0.035,0.06125 0.0811,0.153325 0.14163,0.285156 0.87629,1.906882 3.59953,3.562356 5.86491,3.565462 l 1.55472,-0.02609 -1.08148,-1.17309 c -2.19213,-3.382661 -3.83129,-7.458599 -3.91532,-11.029069 -0.0147,-2.120233 -0.81774,-5.329829 -1.52891,-6.115686 -0.90596,-1.001077 -2.99378,-1.60833 -7.54653,-2.196311 -8.36143,-1.079844 -13.99861,-3.449123 -19.78094,-8.313005 z"
               style="fill:#ffffff;stroke-width:0.18520837"
               inkscape:connector-curvature="0"
               sodipodi:nodetypes="ccccccccccccccc" />
            <path
               sodipodi:nodetypes="csccccscccc"
               inkscape:connector-curvature="0"
               style="fill:#ffffff;stroke-width:0.18520837"
               d="m -207.64043,-71.817229 c 0.28687,0.0849 0.64027,0.251918 1.153,0.511498 1.68585,0.853489 5.69706,1.723207 6.50904,1.411621 0.36508,-0.140154 0.46597,-0.482254 0.33573,-1.14163 -0.0875,0.08745 -1.21588,-3.499829 -1.71702,-5.298648 -0.15666,-0.110142 -0.34571,-0.09989 -0.62693,-0.0072 -3.69477,1.219404 -5.86767,0.494903 -10.69537,-3.567487 -1.5879,-1.336184 -1.7917,-1.429085 -1.56534,-0.709855 0.52927,1.681588 2.36572,4.532039 4.19139,6.503986 l 1.8788,2.02946 z"
               id="path4326" />
            <path
               id="path4330"
               d="m -233.25978,-84.910784 c -0.10512,0.05126 -0.11869,0.245173 -0.007,0.618322 2.10449,7.096769 4.41514,10.458235 8.48187,12.334514 2.02161,0.932727 6.29288,1.851683 8.56579,1.8434 1.97298,-0.0072 5.901,-0.808285 7.23812,-1.475328 0.32985,-0.164553 0.56793,-0.264308 0.80792,-0.288771 l -0.38434,-0.249287 c -11.67428,-1.34263 -19.83939,-5.998031 -24.38158,-12.377937 z"
               style="fill:#ffffff;stroke-width:0.18520837"
               inkscape:connector-curvature="0"
               sodipodi:nodetypes="csssccccc" />
            <path
               sodipodi:nodetypes="cccccccc"
               inkscape:connector-curvature="0"
               style="fill:#ffffff;stroke-width:0.18520837"
               d="m -232.81744,-84.826713 c -0.12878,-0.02609 -0.31386,-0.0539 -0.44234,-0.08407 l 0.2917,0.391259 c 3.94524,4.610719 8.59628,7.937548 15.41417,10.296476 -1.17781,-2.266068 -1.89494,-3.628965 -2.47438,-5.393696 -3.77994,-0.02299 -6.41208,-1.150749 -9.83991,-3.210532 -1.21663,-0.868177 -2.19055,-1.687624 -2.16395,-1.820148 z"
               id="path4332" />
            <path
               sodipodi:nodetypes="ccsssscccccc"
               inkscape:connector-curvature="0"
               style="fill:#ffffff;stroke-width:0.18520837"
               d="m -228.62443,-93.005912 0.53996,0.812996 c 1.47995,2.197366 4.38273,4.833828 6.33715,5.754695 2.91172,1.371921 5.01937,1.724062 10.14528,1.696778 5.31226,-0.02827 7.04799,-0.432368 3.40064,-0.791766 -3.26428,-0.321655 -8.28765,-1.681525 -10.88345,-2.945599 -5.11287,-2.4898 -9.24835,-8.235921 -10.64481,-14.791712 -1.30852,-6.84368 -0.92397,-14.04792 -0.66889,-20.9605 -1.39486,10.04866 -2.82447,15.38338 -0.31603,26.317792 0.59219,1.37098 1.28553,2.971528 1.53904,3.557376 l 0.4601,1.065794 z"
               id="path4336" />
            <path
               style="fill:#ffffff;stroke-width:0.18520837"
               d="m -231.00883,-94.879645 1.26702,0.647163 -1.88991,-4.500815 c -5.22186,-12.437123 -5.25704,-15.911473 -0.26494,-25.752013 1.46214,-2.88217 2.132,-5.03494 1.78678,-5.60908 l -1.65633,1.0759 c -0.31991,0.22648 -4.7674,3.55035 -4.93562,3.68883 -0.0349,0.0286 -0.066,0.0491 -0.089,0.0576 l -3.84253,2.87078 -0.44088,0.75839 -0.26998,0.56627 c -0.67384,1.55175 -1.41655,3.32762 -1.88992,4.77282 -2.28435,7.04867 -0.96827,17.470487 4.69597,24.705433 0.62842,0.887623 2.29799,2.822763 3.71006,4.300597 1.15647,1.210329 1.92921,2.101782 1.99413,2.343869 l 0.77558,0.178972 c -0.0262,-0.22292 -0.2799,-0.875105 -0.6361,-1.642101 -0.39054,-0.840902 -0.8199,-2.361502 -0.95455,-3.3794 -0.20436,-1.544219 -0.59435,-2.322941 -2.35204,-4.700022 -3.71577,-5.243637 -8.07146,-13.486538 -5.00438,-20.386628 -2.26264,6.60259 0.85356,14.08794 5.1682,20.186412 1.82506,2.439683 5.7801,6.920597 6.1086,6.920597 0.28618,0 1.11988,-3.069254 1.1452,-4.357222 l -0.24595,-0.78651 -0.091,-0.308416 -1.6,-1.039701 c -4.78138,-2.717053 -7.23859,-7.88836 -8.56064,-12.24219 -1.52581,-6.09526 3.54217,-15.86985 5.94064,-20.29796 -1.81494,3.60863 -7.18311,14.28122 -5.56562,20.23457 1.2498,4.51581 3.49542,9.066184 7.69721,11.69381 z"
               id="path4350"
               inkscape:connector-curvature="0"
               sodipodi:nodetypes="cccscccccccccscccccccscccccccc" />
            <path
               style="fill:#ffffff;fill-opacity:1;stroke-width:0.18520837"
               d="m -240.99838,-142.31566 c -0.68523,-0.0275 -1.20472,0.0289 -1.43691,0.18101 -0.59743,0.39129 -0.3256,0.64474 2.80706,2.62303 1.07734,0.68034 1.91824,1.27649 1.86869,1.32466 -0.0495,0.0482 -1.43456,-0.0762 -3.07705,-0.27605 -2.3084,-0.2809 -3.07974,-0.26881 -3.3976,0.0536 -0.55159,0.55948 0.18106,1.10734 3.75354,2.80808 0.80365,0.39037 1.99477,0.99142 2.51685,1.42578 0.31699,0.32327 0.86723,0.78252 1.09006,0.96569 0.45319,0.57464 0.82544,1.20554 1.18916,1.84441 0.39352,0.66865 0.8588,1.35912 1.03344,1.53499 0.4271,0.43 1.02072,0.57679 2.02543,0.50054 0.87433,0.10958 1.50419,-0.47835 2.24281,-0.91614 0.74714,-0.60347 1.59431,-1.38869 1.9872,-2.08195 0.39289,-0.69326 0.3816,-2.5842 0.38203,-3.30873 9.9e-4,-1.66619 -0.11246,-1.93764 -1.31758,-3.14278 -1.45414,-1.45412 -2.37137,-1.63163 -4.28949,-0.83019 -1.14471,0.47828 -1.18591,0.46612 -1.898,-0.53391 -0.32146,-0.45144 -0.61275,-0.77462 -0.99603,-1.01827 l -0.23863,-0.3792 c -1.50049,-0.45071 -3.10296,-0.72876 -4.24498,-0.77457 z"
               id="path4359"
               inkscape:connector-curvature="0"
               sodipodi:nodetypes="cssccscccccccccsssccsc" />
          </g>
          <circle
             r="1.1472514"
             cy="-136.6866"
             cx="-232.83968"
             id="path4234"
             style="opacity:1;fill:#b0babf;fill-opacity:1;fill-rule:nonzero;stroke:none;stroke-width:2.82222199;stroke-linecap:round;stroke-linejoin:round;stroke-miterlimit:4;stroke-dasharray:none;stroke-dashoffset:0;stroke-opacity:1" />
          <path
             inkscape:connector-curvature="0"
             transform="matrix(0.2822222,0,0,0.2822222,-254.10849,-176.22406)"
             id="path4381"
             d="m 292.66406,307.93359 -0.23633,0.0684 0.0762,1.64063 c 0.83497,2.35209 2.32712,7.35935 6.29297,12.0293 1.8523,2.18117 3.60515,4.27517 5.27343,6.27148 0.10497,-0.32599 0.17935,-0.5903 0.29102,-0.92969 -1.58039,-1.88881 -3.2042,-3.83131 -4.94141,-5.87695 -2.28058,-2.68549 -3.72633,-5.50348 -4.69922,-7.8457 -0.97239,-2.34105 -1.40609,-4.11156 -1.91406,-5.08399 l -0.14258,-0.27344 z m -1.78125,22.00977 c -0.0458,0.35032 -0.0691,0.59666 -0.11719,0.95703 -0.007,0.0305 -0.0144,0.0595 -0.0215,0.0898 0.36074,0.3737 0.71348,0.71981 1.04492,0.94727 2.46101,2.19458 5.99872,4.60933 9.40625,5.54297 l 0.0137,0.002 0.12891,-0.60937 c 0.0203,-0.0661 0.0385,-0.1256 0.0586,-0.19141 -3.21095,-0.89337 -6.74175,-3.2727 -9.12695,-5.41211 -0.39102,-0.26682 -0.87104,-0.7195 -1.38672,-1.32617 z"
             style="fill:#cad4d7;fill-opacity:1;stroke-width:0.18520837" />
        </g>
      </g>
    </g>
  </g>
</svg>
